<?xml version="1.0" standalone="no"?>
<!DOCTYPE svg PUBLIC "-//W3C//DTD SVG 20010904//EN"
 "http://www.w3.org/TR/2001/REC-SVG-20010904/DTD/svg10.dtd">
<svg version="1.0" xmlns="http://www.w3.org/2000/svg"
 width="724.000000pt" height="724.000000pt" viewBox="0 0 724.000000 724.000000"
 preserveAspectRatio="xMidYMid meet">
<metadata>
Created by potrace 1.11, written by Peter Selinger 2001-2013
</metadata>
<g transform="translate(0.000000,724.000000) scale(0.100000,-0.100000)"
fill="#000000" stroke="none">
<path d="M210 3875 c0 -748 0 -755 20 -756 47 -3 56 -5 67 -12 9 -6 11 -3 6 9
-5 13 -3 15 13 6 28 -15 36 -15 45 0 6 8 9 9 9 1 0 -6 8 -10 18 -8 9 1 23 -2
30 -8 9 -7 11 -5 6 8 -6 13 -4 16 6 10 7 -4 31 -8 54 -9 22 -1 47 -5 53 -9 9
-6 11 -3 6 9 -4 10 -2 15 4 11 18 -11 63 -16 68 -7 3 5 18 5 33 1 15 -4 38 -6
52 -4 69 9 85 7 84 -8 -1 -9 4 -16 11 -16 7 0 11 6 8 13 -3 9 7 13 34 13 21 0
54 1 73 3 26 2 35 -2 34 -13 -1 -9 4 -16 11 -16 7 0 11 6 9 12 -5 13 33 14 53
2 9 -6 11 -3 6 9 -5 14 -3 15 18 3 28 -15 29 -15 40 3 6 8 9 9 9 1 0 -6 8 -10
18 -8 9 1 23 -2 30 -8 9 -7 11 -5 6 8 -6 13 -4 16 6 10 7 -4 31 -8 54 -9 22
-1 47 -5 53 -9 9 -6 11 -3 6 9 -5 14 -3 15 18 3 28 -15 29 -15 40 3 6 8 9 9 9
1 0 -6 8 -10 18 -8 9 1 23 -2 30 -8 9 -7 11 -5 6 8 -6 13 -4 16 6 10 7 -4 31
-8 54 -9 22 -1 47 -5 53 -9 9 -6 11 -3 7 7 -4 10 0 14 13 11 10 -1 17 -8 15
-15 -1 -7 2 -8 10 -4 7 4 42 9 78 11 36 2 79 4 95 5 22 2 30 -2 29 -13 -1 -9
4 -16 11 -16 7 0 11 6 8 13 -3 9 7 13 34 13 21 0 54 1 73 3 26 2 35 -2 34 -13
-1 -9 4 -16 11 -16 7 0 11 6 9 12 -5 13 33 14 53 2 9 -6 11 -3 6 9 -5 14 -3
15 18 3 28 -15 29 -15 40 3 6 8 9 9 9 1 0 -6 8 -10 18 -8 9 1 23 -2 30 -8 9
-7 11 -5 6 8 -6 13 -4 16 6 10 7 -4 31 -8 54 -9 22 -1 47 -5 53 -9 9 -6 11 -3
6 9 -5 14 -3 15 18 3 28 -15 29 -15 40 3 6 8 9 9 9 1 0 -6 8 -10 18 -8 9 1 23
-2 30 -8 9 -7 11 -5 6 8 -6 13 -4 16 6 10 7 -4 31 -8 54 -9 22 -1 47 -5 53 -9
9 -6 11 -3 6 9 -4 10 -2 15 4 11 19 -12 63 -15 69 -6 3 6 15 4 30 -5 21 -15
23 -15 17 1 -5 12 -3 14 7 8 7 -4 31 -8 54 -9 22 -1 47 -5 53 -9 9 -6 11 -3 6
10 -6 15 -4 16 9 6 8 -7 18 -10 21 -6 12 11 148 4 163 -8 12 -10 13 -9 8 6 -6
13 -4 16 6 10 7 -4 31 -8 54 -9 22 -1 47 -5 53 -9 9 -6 11 -3 6 10 -4 14 -3
15 6 7 8 -7 25 -9 44 -4 18 4 41 5 52 3 11 -2 33 -4 50 -4 16 0 35 -5 42 -11
11 -8 12 -7 7 7 -6 13 -4 16 6 10 7 -4 31 -8 54 -9 22 -1 47 -5 53 -9 9 -6 11
-3 6 10 -6 15 -4 16 9 6 8 -7 18 -10 21 -6 12 11 148 4 163 -8 12 -10 13 -9 8
6 -6 13 -4 16 6 10 7 -4 31 -8 54 -9 22 -1 47 -5 53 -9 9 -6 11 -3 6 10 -4 14
-3 15 6 7 8 -7 25 -9 44 -4 18 4 41 5 52 3 11 -2 43 -5 70 -6 28 -1 56 -6 62
-10 9 -6 11 -3 6 9 -5 13 -3 15 13 6 28 -15 36 -15 45 0 6 8 9 9 9 1 0 -6 8
-10 18 -8 9 1 23 -3 31 -9 11 -8 13 -8 8 1 -4 6 -3 14 3 18 5 3 10 2 10 -4 0
-6 6 -8 13 -5 8 3 11 18 9 44 -3 29 0 40 9 40 9 1 8 4 -4 11 -9 6 -14 15 -11
21 4 6 6 38 5 70 -2 42 1 58 11 58 8 0 6 5 -5 11 -9 6 -14 15 -11 21 4 6 6 38
5 70 -2 42 1 58 11 58 8 0 6 4 -5 11 -12 7 -15 15 -8 27 6 11 6 24 0 34 -7 12
-5 20 8 27 10 6 12 11 6 11 -16 0 -17 50 -2 50 5 0 7 -5 3 -12 -5 -7 -3 -8 6
-3 10 6 8 12 -7 24 -24 19 -17 67 10 65 9 -1 14 2 11 8 -3 5 -15 6 -26 2 -17
-5 -18 -3 -10 13 5 10 6 46 3 81 -5 41 -3 61 4 59 5 -2 10 -16 9 -30 0 -15 2
-24 5 -21 10 10 8 63 -3 61 -5 -1 -10 12 -11 29 -1 18 -5 39 -8 48 -5 12 0 16
16 17 17 1 18 2 5 6 -11 3 -18 14 -18 29 0 16 6 24 18 25 15 0 15 1 -2 8 -13
5 -19 18 -20 39 -1 18 4 31 9 29 5 -2 10 -9 10 -15 0 -5 2 -13 6 -16 3 -3 5 5
5 19 0 13 -5 23 -10 22 -6 -1 -10 3 -11 10 0 6 -4 15 -8 19 -4 5 2 16 15 26
13 10 16 16 7 13 -13 -5 -18 1 -21 25 -3 17 -1 33 4 36 4 3 8 0 8 -6 0 -6 5
-8 11 -4 8 5 7 9 -4 15 -20 12 -24 179 -4 179 6 0 4 5 -6 11 -11 6 -14 15 -10
24 5 7 6 36 5 64 l-4 51 -1924 0 -1924 0 0 -755z"/>
<path d="M4070 4506 c0 -2 7 -7 16 -10 8 -3 12 -2 9 4 -6 10 -25 14 -25 6z"/>
<path d="M4070 4426 c0 -2 7 -7 16 -10 8 -3 12 -2 9 4 -6 10 -25 14 -25 6z"/>
<path d="M4510 4380 c-117 -25 -232 -112 -288 -219 -57 -106 -71 -178 -68
-330 4 -172 21 -231 109 -376 7 -11 20 -26 30 -33 9 -7 14 -19 11 -25 -4 -7
-3 -9 1 -4 5 4 15 1 24 -7 15 -13 102 -64 118 -69 5 -1 7 -5 6 -9 -2 -4 9 -5
23 -2 14 3 23 1 20 -4 -3 -6 7 -9 22 -8 15 1 59 0 99 -3 39 -4 69 -3 67 0 -2
4 7 9 21 11 15 3 25 1 25 -6 0 -6 4 -5 9 2 4 8 11 13 14 13 13 -1 100 40 129
60 24 18 31 19 46 7 15 -11 16 -11 5 3 -17 22 6 54 34 47 12 -3 20 0 20 7 0 7
-7 11 -15 8 -12 -5 -12 -2 -3 15 6 12 18 25 27 30 9 5 15 11 13 13 -1 2 1 14
5 27 6 17 13 22 24 17 13 -5 14 -3 5 6 -11 11 -7 42 6 35 3 -2 6 8 7 22 1 37
7 55 24 70 8 8 9 11 3 7 -9 -4 -11 2 -7 24 4 17 7 60 8 96 1 52 4 64 15 60 10
-4 8 2 -5 16 -12 14 -13 19 -4 14 12 -6 13 -5 3 5 -10 11 -9 16 5 27 16 12 16
13 0 7 -22 -7 -25 25 -5 45 10 10 9 11 -5 6 -15 -6 -18 -1 -19 26 -1 19 -1 40
0 48 2 7 -2 10 -8 6 -9 -5 -14 14 -10 41 0 4 -3 10 -8 13 -5 3 -14 17 -21 31
-44 91 -142 178 -240 212 -65 23 -203 32 -272 18z m141 -165 c31 0 99 -25 99
-37 0 -4 5 -8 10 -8 18 0 61 -53 55 -67 -2 -8 0 -11 5 -8 11 7 45 -60 55 -110
18 -86 17 -204 -4 -284 -41 -166 -142 -252 -278 -238 -79 8 -163 62 -154 100
1 5 -3 6 -8 2 -11 -6 -34 29 -24 39 3 3 2 6 -4 6 -6 0 -16 14 -23 30 -10 24
-10 33 0 45 11 13 10 14 -4 9 -11 -4 -16 0 -17 12 -5 70 -9 100 -14 112 -3 9
0 12 9 9 12 -5 12 -2 0 21 -10 20 -11 28 -1 34 9 6 8 8 -3 8 -11 1 -10 4 4 15
11 8 14 15 8 15 -7 0 -12 5 -12 11 0 6 8 8 18 5 14 -5 13 -3 -3 9 -13 10 -16
18 -9 23 6 4 11 14 12 22 3 44 22 90 37 90 8 0 17 4 20 10 3 6 -1 7 -9 4 -26
-10 -19 3 27 49 36 38 108 83 93 59 -3 -5 1 -9 8 -9 9 0 12 7 8 16 -3 9 -2 13
2 10 4 -4 19 -4 34 0 15 4 29 5 32 2 3 -3 17 -6 31 -6z"/>
<path d="M4635 4200 c-3 -5 -1 -10 4 -10 6 0 11 5 11 10 0 6 -2 10 -4 10 -3 0
-8 -4 -11 -10z"/>
<path d="M4473 4152 l-23 -17 24 0 c16 0 22 4 18 14 -4 10 -1 12 8 6 9 -5 11
-4 6 3 -9 15 -6 15 -33 -6z"/>
<path d="M4675 4159 c-3 -4 2 -6 10 -5 21 3 28 13 10 13 -9 0 -18 -4 -20 -8z"/>
<path d="M4755 4151 c-3 -5 -2 -12 3 -15 5 -3 9 1 9 9 0 17 -3 19 -12 6z"/>
<path d="M4530 4139 c0 -5 5 -7 10 -4 6 3 10 8 10 11 0 2 -4 4 -10 4 -5 0 -10
-5 -10 -11z"/>
<path d="M4790 4120 c0 -5 5 -10 11 -10 5 0 7 5 4 10 -3 6 -8 10 -11 10 -2 0
-4 -4 -4 -10z"/>
<path d="M4486 4102 c-3 -5 1 -9 9 -9 8 0 12 4 9 9 -3 4 -7 8 -9 8 -2 0 -6 -4
-9 -8z"/>
<path d="M4440 4086 c0 -2 8 -10 18 -17 15 -13 16 -12 3 4 -13 16 -21 21 -21
13z"/>
<path d="M4393 4033 c0 -8 5 -9 11 -4 6 5 19 7 29 6 9 -2 17 0 17 5 0 4 -13 7
-28 7 -16 -1 -29 -7 -29 -14z"/>
<path d="M4377 3893 c-10 -9 -9 -23 1 -23 5 0 9 7 9 15 0 17 -1 18 -10 8z"/>
<path d="M4370 3760 c0 -5 5 -10 11 -10 5 0 7 5 4 10 -3 6 -8 10 -11 10 -2 0
-4 -4 -4 -10z"/>
<path d="M4076 4353 c-6 -14 -5 -15 5 -6 7 7 10 15 7 18 -3 3 -9 -2 -12 -12z"/>
<path d="M5290 3840 c0 -498 1 -530 18 -530 9 -1 51 -2 92 -3 l75 -2 -3 83
c-2 54 0 82 7 82 6 0 11 5 11 11 0 5 -4 8 -9 5 -5 -3 -9 25 -9 64 0 38 4 68 8
65 5 -3 12 -1 15 5 4 6 1 9 -7 8 -9 -2 -14 11 -16 40 -2 25 1 42 7 42 6 0 11
5 11 11 0 5 -4 8 -8 5 -5 -3 -10 19 -11 49 -1 39 2 55 11 55 9 0 9 3 3 8 -27
19 -10 112 18 95 6 -4 7 -1 2 6 -5 9 -10 10 -18 2 -19 -19 -22 -13 -24 37 -1
26 -4 70 -7 97 -5 48 -2 43 72 -102 42 -83 91 -178 109 -211 18 -33 29 -63 25
-67 -4 -5 -2 -5 4 -2 10 6 31 -25 32 -47 0 -5 4 -12 9 -15 5 -3 28 -40 50 -81
23 -41 59 -108 82 -149 23 -41 41 -78 41 -82 0 -8 42 -11 130 -11 81 0 81 0
77 34 -2 24 2 38 17 50 12 10 16 17 9 18 -7 0 -13 -4 -13 -10 0 -5 -4 -10 -8
-10 -16 0 -9 30 7 31 12 0 11 3 -4 9 -13 6 -15 9 -5 9 9 1 11 4 5 9 -15 11
-12 46 5 54 11 5 10 7 -5 7 -17 1 -17 3 -5 11 8 5 11 10 5 10 -17 0 -12 50 5
51 10 0 8 3 -5 9 -13 6 -15 9 -5 9 9 1 11 4 5 9 -15 11 -12 46 5 54 11 5 10 7
-5 7 -17 1 -17 3 -5 11 8 5 11 10 5 10 -6 0 -10 37 -10 90 0 61 4 89 11 86 6
-2 11 2 11 10 0 7 -4 11 -8 9 -4 -3 -9 2 -13 10 -3 8 0 15 7 15 7 0 8 3 2 8
-14 10 -13 193 1 188 6 -2 11 2 11 10 0 7 -4 11 -8 9 -4 -3 -9 2 -13 10 -3 8
0 15 7 15 7 0 8 3 2 8 -5 4 -10 30 -10 59 0 31 4 49 10 45 6 -3 4 2 -4 11 -9
12 -10 17 -2 17 7 0 9 5 5 12 -4 6 -8 23 -9 37 -1 26 -2 26 -92 29 l-92 3 4
-323 c2 -178 6 -348 10 -378 13 -107 13 -112 3 -102 -6 6 -11 21 -11 35 -1 14
-5 23 -9 21 -7 -4 -38 52 -38 68 0 5 6 6 13 2 7 -4 9 -3 4 2 -5 5 -14 9 -20 9
-7 0 -12 7 -12 15 0 8 -2 17 -5 20 -14 12 -60 100 -53 100 4 0 4 4 -2 8 -11 8
-26 31 -53 82 -10 19 -31 56 -46 83 -15 26 -24 53 -20 59 4 7 3 8 -4 4 -7 -4
-12 -2 -12 4 0 6 -7 18 -15 27 -8 8 -13 19 -10 24 4 5 1 9 -4 9 -6 0 -11 7
-11 15 0 8 -5 15 -11 15 -5 0 -7 5 -4 10 3 6 2 10 -2 10 -13 0 -55 89 -47 101
3 5 0 8 -8 7 -7 -2 -12 3 -10 10 1 6 -3 12 -8 12 -6 0 -16 11 -22 25 -11 24
-14 25 -110 25 l-98 0 0 -530z"/>
<path d="M6349 4333 c-3 -215 0 -1015 4 -1020 3 -3 85 -5 182 -5 133 1 174 -2
168 -11 -5 -9 -3 -9 8 -1 8 7 67 12 148 12 73 1 135 2 136 4 4 4 8 84 6 128
l-1 35 -230 0 c-148 0 -229 4 -228 10 2 6 10 9 18 8 12 -1 12 1 -1 10 -18 14
-31 99 -14 94 5 -2 10 -15 10 -30 1 -14 3 -28 6 -31 3 -3 5 12 5 33 0 22 -3
39 -7 38 -4 -1 -8 1 -9 5 -1 4 -5 22 -10 38 -7 23 -6 30 3 27 7 -2 12 -9 12
-15 0 -5 2 -13 6 -16 3 -3 5 5 5 19 0 13 -5 23 -10 22 -6 -1 -10 3 -11 8 0 6
-4 16 -8 23 -6 8 0 15 15 21 17 7 19 10 6 10 -10 1 -18 8 -18 17 0 8 4 13 9
10 5 -4 11 -2 13 4 5 15 27 -4 31 -28 2 -12 6 -24 9 -28 4 -3 4 8 2 26 -5 31
-4 32 28 29 18 -2 39 -7 46 -13 9 -7 12 -5 10 5 -2 8 3 13 12 10 8 -2 24 -3
35 -2 92 5 95 4 95 -14 0 -8 4 -15 10 -15 5 0 7 6 4 14 -4 10 1 15 15 15 12 1
30 1 41 2 15 0 20 7 20 25 0 14 5 34 10 45 8 14 8 19 -2 17 -8 -2 -12 10 -13
36 l0 39 -177 0 c-129 0 -176 3 -171 11 4 6 1 6 -9 -1 -13 -11 -15 -5 -17 49
-1 33 -4 65 -8 71 -3 5 0 8 8 5 8 -3 14 -17 13 -31 0 -15 2 -24 5 -21 9 8 8
63 0 61 -4 -1 -8 1 -9 5 -1 4 -5 22 -10 39 -8 26 -7 30 6 25 10 -4 13 -2 7 7
-4 6 -9 20 -10 31 -3 16 -1 17 14 5 11 -9 14 -10 9 -1 -5 8 1 12 18 12 14 0
26 -6 26 -12 0 -10 2 -10 8 -1 6 9 53 12 172 12 214 0 202 -1 194 13 -5 8 -1
9 12 5 18 -7 18 -7 0 8 -20 15 -20 15 0 15 15 0 16 2 5 9 -7 5 -10 14 -7 20 4
6 3 11 -2 11 -5 0 -8 12 -6 26 6 56 17 54 -322 54 l-314 0 -1 -37z"/>
<path d="M7007 4299 c7 -7 15 -10 18 -7 3 3 -2 9 -12 12 -14 6 -15 5 -6 -5z"/>
<path d="M4076 4258 c3 -5 10 -6 15 -3 13 9 11 12 -6 12 -8 0 -12 -4 -9 -9z"/>
<path d="M6990 4188 c-10 -21 -10 -21 3 -6 8 10 17 15 20 11 4 -3 7 -1 7 5 0
20 -19 13 -30 -10z"/>
<path d="M6627 4187 c-3 -8 1 -14 8 -14 7 0 11 6 8 14 -3 7 -6 13 -8 13 -2 0
-5 -6 -8 -13z"/>
<path d="M6761 4181 c-8 -5 -9 -11 -3 -15 5 -3 12 1 16 9 6 17 6 18 -13 6z"/>
<path d="M6828 4183 c6 -2 9 -10 6 -15 -4 -7 -2 -8 5 -4 13 9 5 26 -12 25 -9
0 -8 -2 1 -6z"/>
<path d="M6595 4160 c-3 -5 -1 -10 4 -10 6 0 11 5 11 10 0 6 -2 10 -4 10 -3 0
-8 -4 -11 -10z"/>
<path d="M6776 4153 c-6 -14 -5 -15 5 -6 7 7 10 15 7 18 -3 3 -9 -2 -12 -12z"/>
<path d="M6879 4153 c-13 -16 -12 -17 4 -4 9 7 17 15 17 17 0 8 -8 3 -21 -13z"/>
<path d="M6116 4147 c3 -10 9 -15 12 -12 3 3 0 11 -7 18 -10 9 -11 8 -5 -6z"/>
<path d="M6570 4136 c0 -2 8 -10 18 -17 15 -13 16 -12 3 4 -13 16 -21 21 -21
13z"/>
<path d="M6111 4067 c-13 -21 -12 -21 5 -5 10 10 16 20 13 22 -3 3 -11 -5 -18
-17z"/>
<path d="M4070 4066 c0 -2 7 -7 16 -10 8 -3 12 -2 9 4 -6 10 -25 14 -25 6z"/>
<path d="M4070 4006 c0 -2 7 -7 16 -10 8 -3 12 -2 9 4 -6 10 -25 14 -25 6z"/>
<path d="M6116 3907 c3 -10 9 -15 12 -12 3 3 0 11 -7 18 -10 9 -11 8 -5 -6z"/>
<path d="M5493 3885 c0 -8 4 -12 9 -9 5 3 6 10 3 15 -9 13 -12 11 -12 -6z"/>
<path d="M6111 3827 c-13 -21 -12 -21 5 -5 10 10 16 20 13 22 -3 3 -11 -5 -18
-17z"/>
<path d="M5101 3804 c0 -11 3 -14 6 -6 3 7 2 16 -1 19 -3 4 -6 -2 -5 -13z"/>
<path d="M6928 3772 c-17 -7 -17 -8 0 -18 15 -10 18 -8 18 7 0 11 0 19 -1 18
0 0 -8 -4 -17 -7z"/>
<path d="M5496 3753 c-6 -14 -5 -15 5 -6 7 7 10 15 7 18 -3 3 -9 -2 -12 -12z"/>
<path d="M6737 3756 c-4 -10 -1 -13 8 -9 8 3 12 9 9 14 -7 12 -11 11 -17 -5z"/>
<path d="M6790 3763 c0 -6 8 -17 18 -24 16 -13 16 -13 2 6 -8 11 -16 22 -17
24 -2 2 -3 0 -3 -6z"/>
<path d="M6760 3735 c-7 -9 -11 -17 -9 -20 3 -2 10 5 17 15 14 24 10 26 -8 5z"/>
<path d="M6907 3729 c4 -13 8 -18 11 -10 2 7 -1 18 -6 23 -8 8 -9 4 -5 -13z"/>
<path d="M4070 3706 c0 -2 7 -7 16 -10 8 -3 12 -2 9 4 -6 10 -25 14 -25 6z"/>
<path d="M5494 3680 c0 -13 4 -16 10 -10 7 7 7 13 0 20 -6 6 -10 3 -10 -10z"/>
<path d="M4093 3635 c0 -8 4 -12 9 -9 5 3 6 10 3 15 -9 13 -12 11 -12 -6z"/>
<path d="M5079 3629 l-24 -20 28 17 c15 9 27 18 27 20 0 8 -8 4 -31 -17z"/>
<path d="M5070 3585 c0 -7 30 -13 34 -7 3 4 -4 9 -15 9 -10 1 -19 0 -19 -2z"/>
<path d="M5055 3560 c3 -5 8 -10 11 -10 2 0 4 5 4 10 0 6 -5 10 -11 10 -5 0
-7 -4 -4 -10z"/>
<path d="M4070 3546 c0 -2 7 -7 16 -10 8 -3 12 -2 9 4 -6 10 -25 14 -25 6z"/>
<path d="M5024 3508 c0 -13 3 -14 14 -5 8 6 21 12 29 13 29 5 23 11 -9 10 -25
-1 -34 -6 -34 -18z"/>
<path d="M5496 3513 c-6 -14 -5 -15 5 -6 7 7 10 15 7 18 -3 3 -9 -2 -12 -12z"/>
<path d="M4070 3466 c0 -2 7 -7 16 -10 8 -3 12 -2 9 4 -6 10 -25 14 -25 6z"/>
<path d="M5496 3447 c3 -10 9 -15 12 -12 3 3 0 11 -7 18 -10 9 -11 8 -5 -6z"/>
<path d="M4070 3386 c0 -2 7 -7 16 -10 8 -3 12 -2 9 4 -6 10 -25 14 -25 6z"/>
<path d="M4956 3373 c-4 -9 -3 -20 1 -24 4 -4 9 3 9 17 2 28 -1 31 -10 7z"/>
<path d="M7027 3379 c7 -7 15 -10 18 -7 3 3 -2 9 -12 12 -14 6 -15 5 -6 -5z"/>
<path d="M4895 3359 c-4 -6 -4 -13 -1 -16 3 -4 6 -1 6 6 0 7 5 9 12 5 7 -4 8
-3 4 4 -9 15 -13 15 -21 1z"/>
<path d="M5496 3353 c-6 -14 -5 -15 5 -6 7 7 10 15 7 18 -3 3 -9 -2 -12 -12z"/>
<path d="M6100 3362 c0 -5 7 -9 15 -9 8 0 12 4 9 9 -3 4 -9 8 -15 8 -5 0 -9
-4 -9 -8z"/>
<path d="M7011 3354 c0 -11 3 -14 6 -6 3 7 2 16 -1 19 -3 4 -6 -2 -5 -13z"/>
<path d="M4833 3312 c0 -12 5 -22 9 -22 11 0 10 12 -2 30 -7 12 -9 10 -7 -8z"/>
<path d="M5486 3318 c3 -4 9 -8 15 -8 5 0 9 4 9 8 0 5 -7 9 -15 9 -8 0 -12 -4
-9 -9z"/>
<path d="M7010 3321 c0 -6 4 -13 10 -16 6 -3 7 1 4 9 -7 18 -14 21 -14 7z"/>
<path d="M4070 3306 c0 -2 7 -7 16 -10 8 -3 12 -2 9 4 -6 10 -25 14 -25 6z"/>
<path d="M4773 3297 c-3 -6 -1 -7 5 -3 16 10 15 -6 0 -24 -10 -11 -9 -11 6 0
11 8 21 14 23 12 3 -2 8 0 11 4 4 4 1 3 -7 -1 -10 -6 -13 -4 -9 7 7 16 -19 21
-29 5z"/>
<path d="M5493 3279 c-2 -23 3 -25 10 -4 4 8 3 16 -1 19 -4 3 -9 -4 -9 -15z"/>
<path d="M6075 3289 c-4 -6 -5 -12 -2 -15 2 -3 7 2 10 11 7 17 1 20 -8 4z"/>
<path d="M6635 3289 c-4 -6 -5 -12 -2 -15 2 -3 7 2 10 11 7 17 1 20 -8 4z"/>
<path d="M6974 3279 c0 -12 4 -15 12 -9 6 6 14 7 17 3 4 -3 7 -2 7 4 0 6 -8
13 -18 15 -12 4 -18 -1 -18 -13z"/>
<path d="M4531 3274 c0 -11 3 -14 6 -6 3 7 2 16 -1 19 -3 4 -6 -2 -5 -13z"/>
<path d="M5335 3281 c-4 -7 1 -8 12 -4 15 6 16 4 6 -8 -10 -13 -10 -16 1 -16
16 0 15 29 -1 34 -6 2 -14 -1 -18 -6z"/>
<path d="M6094 3278 c-4 -7 -4 -10 1 -6 4 4 15 2 24 -5 14 -11 14 -10 2 6 -16
20 -18 21 -27 5z"/>
<path d="M6380 3285 c0 -2 6 -8 13 -14 10 -8 14 -7 14 2 0 8 -6 14 -14 14 -7
0 -13 -1 -13 -2z"/>
<path d="M6470 3280 c0 -5 5 -10 10 -10 6 0 10 5 10 10 0 6 -4 10 -10 10 -5 0
-10 -4 -10 -10z"/>
<path d="M6655 3279 c-4 -6 -4 -13 -1 -16 3 -4 6 -1 6 6 0 7 5 9 12 5 7 -4 8
-3 4 4 -9 15 -13 15 -21 1z"/>
<path d="M6790 3280 c0 -5 5 -10 10 -10 6 0 10 5 10 10 0 6 -4 10 -10 10 -5 0
-10 -4 -10 -10z"/>
<path d="M4633 3265 c0 -8 4 -15 9 -15 4 0 8 4 8 9 0 6 -4 12 -8 15 -5 3 -9
-1 -9 -9z"/>
<path d="M4588 3263 c7 -3 16 -2 19 1 4 3 -2 6 -13 5 -11 0 -14 -3 -6 -6z"/>
<path d="M4708 3248 c2 -10 6 -18 7 -18 1 0 5 8 7 18 3 11 0 19 -7 19 -7 0
-10 -8 -7 -19z"/>
<path d="M6020 3266 c0 -2 7 -6 15 -10 8 -3 15 -1 15 4 0 6 -7 10 -15 10 -8 0
-15 -2 -15 -4z"/>
<path d="M6420 3266 c0 -2 7 -6 15 -10 8 -3 15 -1 15 4 0 6 -7 10 -15 10 -8 0
-15 -2 -15 -4z"/>
<path d="M6510 3258 c0 -4 4 -8 9 -8 6 0 12 4 15 8 3 5 -1 9 -9 9 -8 0 -15 -4
-15 -9z"/>
<path d="M6580 3266 c0 -2 7 -6 15 -10 8 -3 15 -1 15 4 0 6 -7 10 -15 10 -8 0
-15 -2 -15 -4z"/>
<path d="M6740 3266 c0 -2 7 -6 15 -10 8 -3 15 -1 15 4 0 6 -7 10 -15 10 -8 0
-15 -2 -15 -4z"/>
<path d="M6830 3258 c0 -4 4 -8 9 -8 6 0 12 4 15 8 3 5 -1 9 -9 9 -8 0 -15 -4
-15 -9z"/>
<path d="M6900 3266 c0 -2 7 -6 15 -10 8 -3 15 -1 15 4 0 6 -7 10 -15 10 -8 0
-15 -2 -15 -4z"/>
<path d="M4735 3251 c-3 -5 -2 -12 3 -15 5 -3 9 1 9 9 0 17 -3 19 -12 6z"/>
<path d="M4070 3226 c0 -2 7 -7 16 -10 8 -3 12 -2 9 4 -6 10 -25 14 -25 6z"/>
<path d="M4076 3161 c-3 -5 2 -15 12 -22 15 -12 16 -12 5 2 -7 9 -10 19 -6 22
3 4 4 7 0 7 -3 0 -8 -4 -11 -9z"/>
<path d="M473 3089 c-2 -23 3 -25 10 -4 4 8 3 16 -1 19 -4 3 -9 -4 -9 -15z"/>
<path d="M627 3099 c7 -7 15 -10 18 -7 3 3 -2 9 -12 12 -14 6 -15 5 -6 -5z"/>
<path d="M670 3100 c-9 -6 -10 -10 -3 -10 6 0 15 5 18 10 8 12 4 12 -15 0z"/>
<path d="M830 3100 c-9 -6 -10 -10 -3 -10 6 0 15 5 18 10 8 12 4 12 -15 0z"/>
<path d="M1193 3089 c-2 -23 3 -25 10 -4 4 8 3 16 -1 19 -4 3 -9 -4 -9 -15z"/>
<path d="M1433 3089 c-2 -23 3 -25 10 -4 4 8 3 16 -1 19 -4 3 -9 -4 -9 -15z"/>
<path d="M1630 3100 c-9 -6 -10 -10 -3 -10 6 0 15 5 18 10 8 12 4 12 -15 0z"/>
<path d="M1790 3100 c-9 -6 -10 -10 -3 -10 6 0 15 5 18 10 8 12 4 12 -15 0z"/>
<path d="M2153 3089 c-2 -23 3 -25 10 -4 4 8 3 16 -1 19 -4 3 -9 -4 -9 -15z"/>
<path d="M2391 3103 c3 -19 -2 -27 -10 -15 -7 11 -9 11 -14 -1 -6 -17 17 -17
34 0 8 8 8 13 0 18 -6 3 -11 3 -10 -2z"/>
<path d="M2547 3099 c7 -7 15 -10 18 -7 3 3 -2 9 -12 12 -14 6 -15 5 -6 -5z"/>
<path d="M2633 3095 c0 -8 4 -12 9 -9 5 3 6 10 3 15 -9 13 -12 11 -12 -6z"/>
<path d="M2834 3086 c0 -13 4 -22 8 -20 9 6 6 44 -3 44 -4 0 -6 -11 -5 -24z"/>
<path d="M2953 3089 c-2 -23 3 -25 10 -4 4 8 3 16 -1 19 -4 3 -9 -4 -9 -15z"/>
<path d="M3150 3100 c0 -5 5 -10 11 -10 5 0 7 5 4 10 -3 6 -8 10 -11 10 -2 0
-4 -4 -4 -10z"/>
<path d="M3273 3095 c0 -8 4 -12 9 -9 5 3 6 10 3 15 -9 13 -12 11 -12 -6z"/>
<path d="M3474 3086 c0 -13 4 -22 8 -20 9 6 6 44 -3 44 -4 0 -6 -11 -5 -24z"/>
<path d="M3593 3089 c-2 -23 3 -25 10 -4 4 8 3 16 -1 19 -4 3 -9 -4 -9 -15z"/>
<path d="M3790 3100 c0 -5 5 -10 11 -10 5 0 7 5 4 10 -3 6 -8 10 -11 10 -2 0
-4 -4 -4 -10z"/>
<path d="M4078 3103 c7 -3 16 -2 19 1 4 3 -2 6 -13 5 -11 0 -14 -3 -6 -6z"/>
<path d="M254 3089 c-3 -6 -2 -15 3 -20 5 -5 9 -1 9 11 0 23 -2 24 -12 9z"/>
<path d="M331 3092 c-1 -7 -5 -11 -10 -8 -5 3 -15 -2 -22 -12 -12 -15 -12 -16
1 -6 8 6 23 10 32 9 10 -2 21 2 25 7 3 6 1 8 -5 4 -5 -3 -13 0 -15 6 -4 10 -6
10 -6 0z"/>
<path d="M1051 3084 c0 -11 3 -14 6 -6 3 7 2 16 -1 19 -3 4 -6 -2 -5 -13z"/>
<path d="M1172 3080 c0 -14 2 -19 5 -12 2 6 2 18 0 25 -3 6 -5 1 -5 -13z"/>
<path d="M1291 3084 c0 -11 3 -14 6 -6 3 7 2 16 -1 19 -3 4 -6 -2 -5 -13z"/>
<path d="M1412 3080 c0 -14 2 -19 5 -12 2 6 2 18 0 25 -3 6 -5 1 -5 -13z"/>
<path d="M2012 3076 c1 -14 5 -23 9 -20 7 4 0 44 -7 44 -2 0 -3 -11 -2 -24z"/>
<path d="M2251 3084 c0 -11 3 -14 6 -6 3 7 2 16 -1 19 -3 4 -6 -2 -5 -13z"/>
<path d="M2611 3084 c0 -11 3 -14 6 -6 3 7 2 16 -1 19 -3 4 -6 -2 -5 -13z"/>
<path d="M2715 3089 c-4 -6 -5 -12 -2 -15 2 -3 7 2 10 11 7 17 1 20 -8 4z"/>
<path d="M3035 3089 c-4 -6 -5 -12 -2 -15 2 -3 7 2 10 11 7 17 1 20 -8 4z"/>
<path d="M3251 3084 c0 -11 3 -14 6 -6 3 7 2 16 -1 19 -3 4 -6 -2 -5 -13z"/>
<path d="M3355 3089 c-4 -6 -5 -12 -2 -15 2 -3 7 2 10 11 7 17 1 20 -8 4z"/>
<path d="M3675 3089 c-4 -6 -5 -12 -2 -15 2 -3 7 2 10 11 7 17 1 20 -8 4z"/>
<path d="M3932 3076 c1 -14 5 -23 9 -20 7 4 0 44 -7 44 -2 0 -3 -11 -2 -24z"/>
<path d="M494 3078 c-4 -7 -4 -10 1 -6 4 4 15 2 24 -5 14 -11 14 -10 2 6 -16
20 -18 21 -27 5z"/>
<path d="M550 3078 c0 -6 3 -8 7 -5 3 4 13 1 22 -6 14 -11 14 -10 2 6 -15 20
-31 22 -31 5z"/>
<path d="M611 3074 c0 -11 3 -14 6 -6 3 7 2 16 -1 19 -3 4 -6 -2 -5 -13z"/>
<path d="M750 3082 c0 -5 7 -9 15 -9 8 0 12 4 9 9 -3 4 -9 8 -15 8 -5 0 -9 -4
-9 -8z"/>
<path d="M910 3082 c0 -5 7 -9 15 -9 8 0 12 4 9 9 -3 4 -9 8 -15 8 -5 0 -9 -4
-9 -8z"/>
<path d="M1070 3081 c0 -6 4 -13 10 -16 6 -3 7 1 4 9 -7 18 -14 21 -14 7z"/>
<path d="M1135 3081 c-3 -5 -2 -12 3 -15 5 -3 9 1 9 9 0 17 -3 19 -12 6z"/>
<path d="M1310 3081 c0 -6 4 -13 10 -16 6 -3 7 1 4 9 -7 18 -14 21 -14 7z"/>
<path d="M1375 3081 c-3 -5 -2 -12 3 -15 5 -3 9 1 9 9 0 17 -3 19 -12 6z"/>
<path d="M1506 3082 c-2 -4 4 -8 14 -8 10 0 16 4 14 8 -3 4 -9 8 -14 8 -5 0
-11 -4 -14 -8z"/>
<path d="M1710 3082 c0 -5 7 -9 15 -9 8 0 12 4 9 9 -3 4 -9 8 -15 8 -5 0 -9
-4 -9 -8z"/>
<path d="M1870 3082 c0 -5 7 -9 15 -9 8 0 12 4 9 9 -3 4 -9 8 -15 8 -5 0 -9
-4 -9 -8z"/>
<path d="M2094 3078 c-4 -7 -4 -10 1 -6 4 4 15 2 24 -5 14 -11 14 -10 2 6 -16
20 -18 21 -27 5z"/>
<path d="M2175 3081 c-3 -5 -2 -12 3 -15 5 -3 9 1 9 9 0 17 -3 19 -12 6z"/>
<path d="M2414 3078 c-4 -7 -4 -10 1 -6 4 4 15 2 24 -5 14 -11 14 -10 2 6 -16
20 -18 21 -27 5z"/>
<path d="M2470 3078 c0 -6 3 -8 7 -5 3 4 13 1 22 -6 14 -11 14 -10 2 6 -15 20
-31 22 -31 5z"/>
<path d="M2531 3074 c0 -11 3 -14 6 -6 3 7 2 16 -1 19 -3 4 -6 -2 -5 -13z"/>
<path d="M2576 3073 c-6 -14 -5 -15 5 -6 7 7 10 15 7 18 -3 3 -9 -2 -12 -12z"/>
<path d="M2654 3078 c-4 -7 -4 -10 1 -6 4 4 15 2 24 -5 14 -11 14 -10 2 6 -16
20 -18 21 -27 5z"/>
<path d="M2766 3077 c3 -10 9 -15 12 -12 3 3 0 11 -7 18 -10 9 -11 8 -5 -6z"/>
<path d="M2894 3078 c-4 -7 -4 -10 1 -6 4 4 15 2 24 -5 14 -11 14 -10 2 6 -16
20 -18 21 -27 5z"/>
<path d="M2975 3081 c-3 -5 -2 -12 3 -15 5 -3 9 1 9 9 0 17 -3 19 -12 6z"/>
<path d="M3076 3073 c-6 -14 -5 -15 5 -6 7 7 10 15 7 18 -3 3 -9 -2 -12 -12z"/>
<path d="M3216 3073 c-6 -14 -5 -15 5 -6 7 7 10 15 7 18 -3 3 -9 -2 -12 -12z"/>
<path d="M3294 3078 c-4 -7 -4 -10 1 -6 4 4 15 2 24 -5 14 -11 14 -10 2 6 -16
20 -18 21 -27 5z"/>
<path d="M3406 3077 c3 -10 9 -15 12 -12 3 3 0 11 -7 18 -10 9 -11 8 -5 -6z"/>
<path d="M3534 3078 c-4 -7 -4 -10 1 -6 4 4 15 2 24 -5 14 -11 14 -10 2 6 -16
20 -18 21 -27 5z"/>
<path d="M3615 3081 c-3 -5 -2 -12 3 -15 5 -3 9 1 9 9 0 17 -3 19 -12 6z"/>
<path d="M3716 3073 c-6 -14 -5 -15 5 -6 7 7 10 15 7 18 -3 3 -9 -2 -12 -12z"/>
<path d="M4014 3078 c-4 -7 -4 -10 1 -6 4 4 15 2 24 -5 14 -11 14 -10 2 6 -16
20 -18 21 -27 5z"/>
<path d="M4066 3078 c3 -5 10 -6 15 -3 13 9 11 12 -6 12 -8 0 -12 -4 -9 -9z"/>
<path d="M227 2854 c-13 -14 5 -24 42 -24 l38 0 -2 -75 c-1 -70 0 -75 20 -75
20 0 21 5 21 73 l-1 72 43 3 c28 2 42 8 42 18 0 11 -19 14 -98 14 -54 0 -102
-3 -105 -6z"/>
<path d="M2434 2773 c1 -74 4 -88 18 -91 14 -3 17 5 16 40 -1 85 0 86 38 29
l37 -55 21 25 c12 13 31 37 42 53 l21 30 -1 -62 c-2 -57 0 -62 19 -62 19 0 20
6 21 90 0 76 -2 90 -16 90 -16 0 -25 -9 -73 -73 l-29 -38 -39 56 c-23 32 -48
55 -58 55 -16 0 -18 -9 -17 -87z"/>
<path d="M3847 2854 c-13 -14 5 -24 42 -24 l38 0 -1 -75 c-1 -69 0 -75 19 -75
19 0 21 6 21 73 l0 72 42 3 c29 2 42 8 42 18 0 11 -19 14 -98 14 -54 0 -102
-3 -105 -6z"/>
<path d="M4768 2854 c-4 -7 -3 -140 1 -166 1 -5 34 -8 75 -8 65 0 79 3 103 24
22 19 28 32 28 65 0 65 -28 85 -124 89 -43 2 -81 0 -83 -4z m157 -47 c17 -27
12 -67 -12 -84 -9 -7 -37 -13 -63 -13 l-45 0 -1 60 0 60 53 0 c44 0 55 -4 68
-23z"/>
<path d="M490 2750 l0 -71 77 3 c50 2 78 7 81 16 3 9 -13 12 -57 12 -48 0 -61
3 -61 15 0 10 10 15 33 15 23 0 34 5 34 15 0 10 -11 15 -34 15 -56 0 -36 19
24 22 34 2 58 8 61 16 3 9 -17 12 -77 12 l-81 0 0 -70z"/>
<path d="M743 2750 c-36 -60 -40 -70 -24 -70 10 0 21 7 25 15 4 11 20 15 56
15 36 0 52 -4 56 -15 6 -14 44 -22 44 -10 0 19 -85 135 -98 135 -10 0 -34 -28
-59 -70z m73 23 c20 -27 17 -33 -16 -33 -28 0 -29 1 -18 25 13 30 17 30 34 8z"/>
<path d="M963 2750 c1 -50 5 -70 14 -70 9 0 13 15 13 47 l0 46 34 -39 33 -38
26 29 c15 17 27 35 27 40 0 6 4 4 9 -3 4 -7 7 -29 6 -48 -2 -27 1 -34 16 -34
17 0 19 8 19 70 0 84 -11 89 -63 29 l-36 -40 -37 40 c-53 59 -63 55 -61 -29z"/>
<path d="M1250 2753 c16 -38 35 -69 43 -71 8 -2 19 13 27 38 7 23 17 43 21 45
4 3 16 -15 28 -40 31 -66 39 -62 81 44 19 48 19 52 3 49 -10 -2 -25 -22 -34
-48 l-17 -45 -21 48 c-11 26 -25 47 -31 47 -5 0 -20 -21 -32 -47 l-22 -47 -19
47 c-13 31 -25 47 -37 47 -16 0 -15 -7 10 -67z"/>
<path d="M1534 2806 c-3 -7 -4 -38 -2 -67 l3 -54 78 -3 c44 -2 84 2 91 7 13
11 14 100 2 120 -11 17 -165 15 -172 -3z m146 -56 l0 -40 -58 0 -58 0 0 40 0
40 58 0 58 0 0 -40z"/>
<path d="M1800 2750 c0 -64 2 -70 20 -70 16 0 19 5 16 25 -4 20 -1 25 16 25
11 0 33 -11 50 -25 16 -14 42 -25 56 -25 26 1 25 2 -13 25 -32 20 -36 25 -18
25 23 0 36 13 40 44 6 35 -15 46 -93 46 l-74 0 0 -70z m130 25 c0 -11 -12 -15
-44 -15 -30 0 -46 5 -50 15 -4 12 4 15 44 15 38 0 50 -4 50 -15z"/>
<path d="M2041 2751 c2 -63 4 -71 22 -71 15 0 18 5 15 25 -8 37 4 38 48 5 23
-17 52 -30 69 -30 29 0 28 1 -23 35 -28 20 -52 38 -52 40 0 3 21 19 47 35 42
27 44 30 21 30 -14 0 -42 -11 -62 -25 -45 -31 -53 -31 -52 -3 1 14 -6 24 -17
26 -16 3 -18 -4 -16 -67z"/>
<path d="M2783 2750 c-37 -60 -40 -70 -24 -70 10 0 21 7 25 15 4 11 20 15 54
15 32 0 54 -5 62 -15 7 -8 21 -15 30 -15 15 0 10 13 -27 70 -26 40 -53 70 -62
70 -9 0 -34 -31 -58 -70z m84 -6 c-3 -3 -17 -4 -31 -2 -26 3 -26 4 -10 26 l16
23 15 -21 c8 -12 13 -24 10 -26z"/>
<path d="M3000 2750 c0 -64 2 -70 20 -70 16 0 19 5 16 25 -7 37 7 38 50 5 23
-17 52 -30 69 -30 28 0 27 2 -24 36 -60 41 -61 37 10 86 l24 17 -23 0 c-13 1
-40 -10 -60 -24 -20 -14 -40 -25 -45 -25 -4 0 -5 11 -1 25 5 21 3 25 -15 25
-19 0 -21 -5 -21 -70z"/>
<path d="M3240 2750 l0 -70 81 0 c60 0 80 3 77 13 -3 7 -29 14 -61 17 -63 5
-77 22 -26 30 46 7 50 30 5 30 -19 0 -38 5 -41 10 -4 6 19 10 60 10 49 0 66 3
63 13 -3 8 -31 13 -81 15 l-77 3 0 -71z"/>
<path d="M3467 2800 c-12 -48 1 -60 67 -60 51 0 63 -3 63 -16 0 -14 -10 -16
-69 -12 -60 5 -69 3 -66 -11 3 -13 17 -16 77 -16 82 0 99 11 87 58 -6 25 -10
27 -66 27 -33 0 -60 4 -60 10 0 6 27 10 60 10 47 0 60 3 60 15 0 12 -15 15
-74 15 -65 0 -74 -2 -79 -20z"/>
<path d="M4101 2750 c0 -63 2 -70 20 -70 11 0 19 6 18 13 -5 42 0 47 56 47
l55 0 -4 -30 c-3 -24 0 -30 15 -30 20 0 21 2 21 55 0 80 -1 87 -19 83 -10 -2
-18 -12 -18 -23 0 -17 -8 -20 -52 -23 -53 -3 -58 1 -54 36 1 6 -7 12 -18 12
-18 0 -20 -7 -20 -70z"/>
<path d="M4370 2750 l0 -71 77 3 c50 2 78 7 81 16 3 9 -13 12 -57 12 -48 0
-61 3 -61 15 0 10 10 15 33 15 23 0 34 5 34 15 0 10 -11 15 -34 15 -18 0 -33
5 -33 10 0 6 27 10 60 10 47 0 60 3 60 15 0 12 -16 15 -80 15 l-80 0 0 -70z"/>
<path d="M5062 2750 c0 -63 2 -70 20 -70 14 0 18 6 16 22 -4 33 26 35 63 4 17
-14 40 -26 52 -26 20 1 20 3 -8 25 -28 23 -29 25 -8 25 16 0 25 8 29 27 12 46
-5 58 -88 61 l-76 3 0 -71z m128 25 c0 -11 -12 -15 -45 -15 -33 0 -45 4 -45
15 0 11 12 15 45 15 33 0 45 -4 45 -15z"/>
<path d="M5300 2750 l0 -70 78 0 c63 0 79 3 79 15 0 12 -14 15 -63 15 -52 0
-62 3 -58 15 4 9 19 15 40 15 24 0 34 5 34 15 0 10 -11 15 -35 15 -19 0 -35 5
-35 10 0 6 26 10 58 10 46 0 59 3 59 15 0 12 -16 15 -79 15 l-78 0 0 -70z"/>
<path d="M5553 2750 c-36 -60 -40 -70 -24 -70 10 0 21 7 25 15 4 11 20 15 56
15 36 0 52 -4 56 -15 6 -15 45 -22 43 -7 0 4 -17 34 -38 67 -52 83 -66 82
-118 -5z m87 -2 c0 -4 -14 -8 -31 -8 -30 0 -31 5 -5 38 8 11 12 11 23 -4 7
-10 13 -21 13 -26z"/>
<path d="M5772 2753 c2 -42 8 -68 16 -71 8 -2 12 10 12 43 l0 47 34 -38 35
-39 34 40 35 40 -2 -45 c-1 -35 3 -45 17 -48 15 -3 17 5 17 67 0 85 -12 91
-64 30 l-35 -41 -30 34 c-17 18 -31 36 -31 41 0 4 -9 7 -20 7 -19 0 -21 -5
-18 -67z"/>
<path d="M6062 2750 c17 -38 36 -70 43 -70 6 0 20 21 32 48 l20 47 21 -47 c12
-27 26 -48 32 -48 9 0 32 43 61 118 7 19 6 23 -7 20 -9 -2 -24 -23 -34 -48
l-18 -45 -21 48 c-11 26 -25 47 -31 47 -6 0 -21 -21 -32 -47 l-21 -48 -20 48
c-13 32 -25 47 -38 47 -16 0 -15 -7 13 -70z"/>
<path d="M6344 2806 c-3 -7 -4 -38 -2 -67 l3 -54 78 -3 c44 -2 84 2 91 7 13
11 15 99 2 119 -11 18 -165 16 -172 -2z m146 -56 l0 -40 -58 0 -58 0 0 40 0
40 58 0 58 0 0 -40z"/>
<path d="M6610 2749 c0 -62 2 -70 18 -67 9 2 18 13 20 26 4 29 27 28 64 -3 16
-14 42 -25 56 -25 l27 0 -34 22 c-32 21 -33 22 -12 30 28 10 36 33 23 64 -11
22 -17 24 -87 24 l-75 0 0 -71z m130 26 c0 -11 -12 -15 -45 -15 -33 0 -45 4
-45 15 0 11 12 15 45 15 33 0 45 -4 45 -15z"/>
<path d="M6850 2749 c0 -62 2 -70 17 -67 10 2 20 15 23 32 l5 28 39 -31 c25
-20 50 -31 70 -31 30 0 29 1 -26 38 l-57 38 52 32 c49 30 50 32 23 32 -16 0
-44 -11 -62 -25 -18 -14 -35 -25 -38 -25 -3 0 -6 11 -6 25 0 18 -5 25 -20 25
-18 0 -20 -7 -20 -71z"/>
</g>
</svg>
